<svg xmlns="http://www.w3.org/2000/svg" xmlns:xlink="http://www.w3.org/1999/xlink" id="Layer_1" x="0px" y="0px" viewBox="0 0 282.6 72.2" style="enable-background:new 0 0 282.6 72.2;" xml:space="preserve"><g>	<circle cx="62" cy="11.7" r="10"></circle>	<circle cx="51.5" cy="63.6" r="6.7"></circle>	<circle cx="10.9" cy="42.7" r="6.4"></circle>	<circle cx="28.8" cy="10.4" r="4.8"></circle>	<circle cx="36.4" cy="33.7" r="10.7"></circle>	<polygon points="10.6,42.1 11.1,43.4 36.2,34.6 51,63.9 52.1,63.3 37.3,33.9 62.4,12.3 61.5,11.2 36.7,32.4 29.6,10.1 28.2,10.6   35.6,33.3  "></polygon></g><g>	<path d="M87.4,38.1c-0.8-0.4-1.6-0.9-2.2-1.5c-0.6-0.6-1.1-1.4-1.5-2.2s-0.6-1.8-0.6-2.8c0-1,0.2-1.9,0.6-2.8  c0.4-0.9,0.9-1.6,1.5-2.2s1.4-1.1,2.2-1.5c0.9-0.4,1.8-0.6,2.8-0.6h32.2c0.7,0,1.3,0.2,1.8,0.7s0.7,1.1,0.7,1.8  c0,0.7-0.2,1.3-0.7,1.8s-1.1,0.7-1.8,0.7H90c-0.5,0-1,0.2-1.4,0.6S88,30.9,88,31.5c0,0.5,0.2,1,0.6,1.4c0.4,0.4,0.9,0.6,1.4,0.6  h29.4c1,0,1.9,0.2,2.8,0.6c0.9,0.4,1.6,0.9,2.3,1.5c0.6,0.6,1.1,1.4,1.5,2.3s0.6,1.8,0.6,2.8s-0.2,1.9-0.6,2.8  c-0.4,0.8-0.9,1.6-1.5,2.2c-0.6,0.6-1.4,1.1-2.3,1.5s-1.8,0.5-2.8,0.5H87.2c-0.7,0-1.3-0.2-1.8-0.7s-0.7-1.1-0.7-1.8  s0.2-1.3,0.7-1.8s1.1-0.7,1.8-0.7h32.4c0.5,0,1-0.2,1.4-0.6c0.4-0.4,0.6-0.8,0.6-1.4c0-0.6-0.2-1-0.6-1.4s-0.9-0.6-1.4-0.6H90.2  C89.2,38.6,88.2,38.5,87.4,38.1z"></path>	<path d="M166.2,24.5c1,0,1.9,0.2,2.8,0.6c0.9,0.4,1.6,0.9,2.3,1.5s1.2,1.4,1.5,2.2c0.4,0.8,0.6,1.8,0.6,2.8s-0.2,1.9-0.6,2.8  c-0.4,0.9-0.9,1.6-1.5,2.2c-0.7,0.6-1.4,1.1-2.3,1.5c-0.9,0.4-1.8,0.6-2.8,0.6h-29.3v6.5c0,0.7-0.3,1.3-0.8,1.8s-1.1,0.7-1.8,0.7  c-0.7,0-1.3-0.2-1.8-0.7s-0.7-1.1-0.7-1.8V27.1c0-0.7,0.2-1.3,0.7-1.8s1.1-0.7,1.8-0.7L166.2,24.5L166.2,24.5z M136.9,29.6v3.9  h29.5c0.5,0,1-0.2,1.4-0.6c0.4-0.4,0.6-0.8,0.6-1.4c0-0.5-0.2-1-0.6-1.4c-0.4-0.4-0.9-0.6-1.4-0.6h-29.5V29.6z"></path>	<path d="M183,46.9c-0.5,0.5-1.1,0.7-1.8,0.7s-1.3-0.2-1.8-0.7s-0.7-1.1-0.7-1.8v-18c0-0.7,0.2-1.3,0.7-1.8s1.1-0.7,1.8-0.7  s1.3,0.2,1.8,0.7s0.7,1.1,0.7,1.8v18.1C183.8,45.8,183.5,46.4,183,46.9z"></path>	<path d="M194.1,33.5h12.3c1.8,0,3.6-0.2,5.4-0.7c1.8-0.5,3.5-1.1,5.2-1.9s3.3-1.7,4.8-2.7s3-2,4.4-3c0.6-0.5,1.2-0.7,1.8-0.7  c0.7,0,1.3,0.2,1.8,0.7s0.7,1.1,0.7,1.8c0,0.5-0.1,0.9-0.4,1.3c-0.3,0.4-0.6,0.7-1,1c-0.9,0.7-1.8,1.4-2.7,2  c-0.8,0.6-1.7,1.2-2.5,1.7s-1.7,1-2.6,1.5c-0.9,0.5-1.9,1-2.9,1.5c1,0.5,2,1,2.9,1.5s1.8,1,2.6,1.5c0.9,0.5,1.7,1.1,2.5,1.7  c0.8,0.6,1.7,1.3,2.7,2c0.4,0.3,0.7,0.6,1,1s0.4,0.8,0.4,1.3c0,0.7-0.2,1.3-0.7,1.8s-1.1,0.7-1.8,0.7c-0.6,0-1.2-0.2-1.8-0.7  c-1.5-1.1-2.9-2.1-4.5-3.1c-1.5-1-3.1-1.9-4.8-2.7s-3.4-1.4-5.2-1.9s-3.6-0.7-5.4-0.7H194v6.5c0,0.7-0.2,1.3-0.7,1.8  s-1.1,0.7-1.8,0.7s-1.3-0.2-1.8-0.7s-0.7-1.1-0.7-1.8V27.1c0-0.7,0.2-1.3,0.7-1.8s1.1-0.7,1.8-0.7s1.3,0.2,1.8,0.7s0.7,1.1,0.7,1.8  v6.4H194.1z"></path>	<path d="M246.9,29.6c-1.2,0-2.2,0.2-3,0.7c-0.8,0.4-1.4,1-1.8,1.6c-0.4,0.6-0.7,1.3-0.9,2.1c-0.2,0.8-0.2,1.5-0.2,2.1  c0,0.6,0.1,1.3,0.2,2.1c0.2,0.8,0.5,1.5,0.9,2.1s1,1.2,1.8,1.6c0.8,0.4,1.8,0.7,3,0.7h29.3c0.7,0,1.3,0.2,1.8,0.7s0.7,1.1,0.7,1.8  s-0.2,1.3-0.7,1.8s-1.1,0.7-1.8,0.7h-31c-1.5,0-2.7-0.4-3.9-1.1c-1.1-0.7-2.1-1.6-2.9-2.7c-0.8-1.1-1.4-2.4-1.8-3.7  c-0.4-1.4-0.6-2.7-0.6-4s0.2-2.7,0.7-4.1c0.4-1.4,1.1-2.6,1.9-3.7c0.8-1.1,1.9-2,3.1-2.7c1.2-0.7,2.6-1.1,4.1-1.1h30.4  c0.7,0,1.3,0.2,1.8,0.7s0.7,1.1,0.7,1.8c0,0.7-0.2,1.3-0.7,1.8s-1.1,0.7-1.8,0.7h-29.3V29.6z M275.7,34.3c0.5,0.5,0.7,1.1,0.7,1.8  s-0.2,1.3-0.7,1.8s-1.1,0.7-1.8,0.7h-26.4c-0.7,0-1.3-0.2-1.8-0.7s-0.7-1.1-0.7-1.8c0-0.7,0.2-1.3,0.7-1.8s1.1-0.7,1.8-0.7h26.4  C274.6,33.5,275.2,33.8,275.7,34.3z"></path></g></svg>